HIERARCHY
ROOT root
{
	OFFSET	0	13.1	24.9
	CHANNELS 6  Xposition Yposition Zposition Xrotation Yrotation Zrotation
	JOINT spine_1
	{
		OFFSET	0	9.99999	0
		CHANNELS 3  Xrotation Yrotation Zrotation
		JOINT spine_2
		{
			OFFSET	0	112	-10
			CHANNELS 3  Xrotation Yrotation Zrotation
			JOINT spine_3
			{
				OFFSET	0	206.5	19.3
				CHANNELS 3  Xrotation Yrotation Zrotation
				JOINT spine_4
				{
					OFFSET	0	110.4	14.6
					CHANNELS 3  Xrotation Yrotation Zrotation
					JOINT neck_1
					{
						OFFSET	0	71.8	-50.3
						CHANNELS 3  Xrotation Yrotation Zrotation
						JOINT neck_2
						{
							OFFSET	0	86.2	-25.8
							CHANNELS 3  Xrotation Yrotation Zrotation
							JOINT head_ee
							{
								OFFSET	0	179.8	-8.7
								CHANNELS 3  Xrotation Yrotation Zrotation
								End Site
								{
									OFFSET	1	0	0
								}
							}
						}
					}
					JOINT left_clavicle
					{
						OFFSET	-43.2	22.4	-70.8
						CHANNELS 3  Xrotation Yrotation Zrotation
						JOINT left_shoulder
						{
							OFFSET	-93.9	-5.79999	48.7
							CHANNELS 3  Xrotation Yrotation Zrotation
							JOINT left_elbow
							{
								OFFSET	-291.4	-30.8	15.2
								CHANNELS 3  Xrotation Yrotation Zrotation
								JOINT left_lowarm_twist
								{
									OFFSET	-110.7	-3.89999	13.6
									CHANNELS 3  Xrotation Yrotation Zrotation
									JOINT left_hand
									{
										OFFSET	-110.7	-3.89999	13.6
										CHANNELS 3  Xrotation Yrotation Zrotation
										JOINT left_ee
										{
											OFFSET	-80.8	-5.10001	12.1
											CHANNELS 3  Xrotation Yrotation Zrotation
											End Site
											{
												OFFSET	1	0	0
											}
										}
									}
								}
							}
						}
					}
					JOINT right_clavicle
					{
						OFFSET	43.2	22.4	-70.8
						CHANNELS 3  Xrotation Yrotation Zrotation
						JOINT right_shoulder
						{
							OFFSET	93.9	-5.79999	48.7
							CHANNELS 3  Xrotation Yrotation Zrotation
							JOINT right_elbow
							{
								OFFSET	291.4	-30.8	15.2
								CHANNELS 3  Xrotation Yrotation Zrotation
								JOINT right_lowarm_twist
								{
									OFFSET	110.7	-3.89999	13.6
									CHANNELS 3  Xrotation Yrotation Zrotation
									JOINT right_hand
									{
										OFFSET	110.7	-3.89999	13.6
										CHANNELS 3  Xrotation Yrotation Zrotation
										JOINT right_ee
										{
											OFFSET	80.8	-5.10001	12.1
											CHANNELS 3  Xrotation Yrotation Zrotation
											End Site
											{
												OFFSET	1	0	0
											}
										}
									}
								}
							}
						}
					}
				}
			}
		}
	}
	JOINT left_hip
	{
		OFFSET	-82.8	-127.5	0.300001
		CHANNELS 3  Xrotation Yrotation Zrotation
		JOINT left_knee
		{
			OFFSET	-28.2	-396.7	2.2
			CHANNELS 3  Xrotation Yrotation Zrotation
			JOINT left_ankle
			{
				OFFSET	-11.7	-411.3	35.4
				CHANNELS 3  Xrotation Yrotation Zrotation
				JOINT left_toes
				{
					OFFSET	0	-60	-88.6
					CHANNELS 3  Xrotation Yrotation Zrotation
					JOINT left_foot_ee
					{
						OFFSET	-22.5	-16.5	-42.2
						CHANNELS 3  Xrotation Yrotation Zrotation
						End Site
						{
							OFFSET	1	0	0
						}
					}
				}
			}
		}
	}
	JOINT right_hip
	{
		OFFSET	82.8	-127.5	0.300001
		CHANNELS 3  Xrotation Yrotation Zrotation
		JOINT right_knee
		{
			OFFSET	28.2	-396.7	2.2
			CHANNELS 3  Xrotation Yrotation Zrotation
			JOINT right_ankle
			{
				OFFSET	11.7	-411.3	35.4
				CHANNELS 3  Xrotation Yrotation Zrotation
				JOINT right_toes
				{
					OFFSET	0	-60	-88.6
					CHANNELS 3  Xrotation Yrotation Zrotation
					JOINT right_foot_ee
					{
						OFFSET	22.5	-16.5	-42.2
						CHANNELS 3  Xrotation Yrotation Zrotation
						End Site
						{
							OFFSET	1	0	0
						}
					}
				}
			}
		}
	}
}
MOTION
Frames: 14
Frame Time: 0.02
2857.31994859 697.181 -1683.09153723 6.69223584904 52.4859550285 -5.65950367427 0.421689 0.732595 1.58391 0.422864 0.630336 1.6273 0.441641 0.287696 1.72121 0.437938 0.555882 1.65421 -20.8732 16.511 7.00611 -22.0702 28.4276 14.0338 -0.0 0.0 -0.0 -4.17345 -3.92826 -8.87016 -4.71343 -22.6459 68.1778 0.601715 -16.598 0.0877706 -22.4186 -1.30348 2.53465 -1.32521 6.60189 -5.89652 -0.0 0.0 -0.0 6.82456 23.0445 -12.1316 -15.9366 27.332 -72.0178 0.512962 14.2577 -0.0641553 1.07641 -0.0366808 0.132582 4.73445 -27.4068 -40.8098 0.0 0.0 0.0 -3.83007 14.7841 1.76742 -16.3058 0.321332 2.47323 38.3699 14.5151 -4.7768 -8.01915 0.0 0.0 -0.0 0.0 -0.0 12.9731 50.0402 -16.4847 -55.8158 1.76551 -8.04858 2.04325 -10.4251 0.297698 39.2001 -0.0 -0.0 0.0 0.0 0.0 
2841.99874285 701.183 -1665.85034042 6.86230977013 53.5225787453 -5.96299052612 0.44036 0.867676 1.67417 0.441599 0.759402 1.72597 0.465493 0.394945 1.84379 0.461396 0.681136 1.75832 -21.7035 16.3386 6.54938 -23.0074 28.4122 13.8043 -0.0 0.0 -0.0 -3.76485 -2.59602 -7.79703 -3.88249 -20.3421 66.016 0.636899 -17.5107 0.0980898 -23.2348 -1.36903 2.61611 -2.4447 7.36552 -12.9281 -0.0 0.0 -0.0 7.11682 24.3618 -12.6473 -16.0597 27.4049 -72.1685 0.37356 10.4842 -0.0342737 1.34164 -0.0453355 0.165352 4.89987 -25.2906 -41.9621 0.0 0.0 0.0 -4.10154 15.3782 2.29992 -18.8686 0.307386 2.86616 36.6308 15.9211 -4.63164 -9.38925 0.0 0.0 -0.0 0.0 -0.0 13.2033 43.344 -14.7186 -49.7217 1.19802 -7.30109 4.36052 -9.02507 0.630972 39.1717 -0.0 -0.0 0.0 0.0 0.0 
2830.92346519 700.083 -1632.69875117 6.26579385281 57.8132912366 -5.1657269661 0.450076 0.708976 1.4388 0.451017 0.615995 1.48099 0.467671 0.303988 1.5749 0.46463 0.548871 1.50715 -21.4505 16.5117 6.0708 -22.8087 28.9422 13.3968 -0.0 0.0 -0.0 -3.20225 -2.58911 -6.66541 -2.91028 -18.1611 63.4822 0.827481 -22.2891 0.163016 -24.9684 -1.51212 2.78605 -3.27511 7.81831 -18.3062 -0.0 0.0 -0.0 7.3377 26.4111 -12.9256 -15.2389 27.1913 -72.2463 0.271382 7.65681 -0.0181604 2.16588 -0.0712612 0.267439 4.97523 -26.1846 -42.649 0.0 0.0 0.0 -5.2962 15.1184 3.07685 -16.9883 0.319336 2.57792 36.1095 14.5483 -4.56199 -11.9696 0.0 0.0 -0.0 0.0 -0.0 13.2902 37.5551 -11.5192 -44.7927 0.799484 -6.65579 4.68361 -5.01869 0.678074 38.9529 -0.0 -0.0 0.0 0.0 0.0 
2826.27005544 702.191 -1602.32986864 5.10709041228 61.163360965 -3.47908621751 0.471758 0.50185 1.29868 0.472599 0.418202 1.32798 0.482821 0.141497 1.38505 0.480323 0.358444 1.34534 -19.3728 16.6749 5.00176 -20.609 29.5549 11.8677 -0.0 0.0 -0.0 -2.75661 0.762545 -5.21318 -1.2154 -11.8439 61.3225 1.14795 -29.6241 0.303569 -27.5129 -1.73131 3.02751 -4.43169 9.05909 -25.7083 -0.0 0.0 -0.0 7.64756 27.8311 -13.4533 -15.8459 26.9274 -71.3274 0.332602 9.35627 -0.0272172 2.31986 -0.0759415 0.286551 5.02092 -27.0222 -43.0748 0.0 0.0 0.0 -5.86834 15.2866 3.44858 -14.6021 0.320874 2.21184 34.1177 14.2257 -4.36009 -14.1911 0.0 0.0 -0.0 0.0 -0.0 14.5934 31.344 -10.3527 -40.1793 0.478213 -6.02336 1.9424 -2.89699 0.284166 38.4797 -0.0 -0.0 0.0 0.0 0.0 
2788.3781946 694.647 -1556.14108444 9.29131246547 65.8858766139 -7.44833904749 0.218658 0.343977 1.24836 0.219486 0.26385 1.26771 0.225813 -0.00336008 1.29487 0.22353 0.201165 1.27915 -18.9478 16.3131 3.69251 -20.1711 29.4854 10.3866 -0.0 0.0 -0.0 -1.75436 5.85603 -2.49487 1.15417 -9.53598 57.1802 1.58355 -38.1095 0.546985 -32.6269 -2.20332 3.48243 -5.33799 8.59957 -32.8085 -0.0 0.0 -0.0 6.85154 28.3899 -11.6466 -18.5057 25.9766 -70.6404 0.535441 14.8554 -0.0698053 2.84007 -0.0913724 0.351207 5.17421 -28.451 -44.3878 0.0 0.0 0.0 -11.7467 15.3072 6.72758 -14.1211 0.319337 2.13805 35.3746 13.6914 -4.47972 -16.7496 0.0 0.0 -0.0 0.0 -0.0 20.5396 23.7584 -12.18 -34.3806 0.148491 -5.19588 3.33918 -2.96655 0.486592 36.4297 -0.0 -0.0 0.0 0.0 0.0 
2771.30765225 695.52 -1534.35488306 10.9717007724 68.2480546347 -9.8578695815 0.137653 0.0877943 1.45532 0.138831 -0.00497914 1.45795 0.139186 -0.307898 1.42509 0.13636 -0.0789932 1.45582 -19.1233 16.2082 3.63376 -20.3524 29.3292 10.337 -0.0 0.0 -0.0 -1.94634 6.75148 -2.70195 1.95042 -9.40887 56.932 1.70107 -40.1161 0.62113 -32.7725 -2.21734 3.49476 -5.89214 10.7029 -35.6549 -0.0 0.0 -0.0 7.33521 28.3659 -12.7083 -18.1961 26.6681 -69.9221 0.447334 12.4948 -0.0489708 1.96568 -0.0650992 0.242609 5.17474 -30.6847 -44.3795 0.0 0.0 0.0 -15.2077 15.0212 9.17434 -10.5955 0.289183 1.59804 36.0687 14.1247 -4.55277 -21.2813 0.0 0.0 -0.0 0.0 -0.0 21.9974 17.3364 -12.1623 -33.7062 0.11564 -5.09764 4.23094 -8.49771 0.612393 38.2469 -0.0 -0.0 0.0 0.0 0.0 
2759.27794117 697.059 -1521.65748467 11.3021188957 70.2647834132 -10.7024972844 -0.0182955 0.0344066 1.60227 -0.0168696 -0.0676065 1.60121 -0.018174 -0.403233 1.5511 -0.0214991 -0.153238 1.5953 -19.79 15.9257 3.62245 -21.0439 28.8474 10.3912 -0.0 0.0 -0.0 -1.84835 6.65175 -2.54074 2.21025 -9.08825 56.469 1.87629 -42.9019 0.737293 -33.9654 -2.33344 3.59444 -5.45134 8.88626 -33.4951 -0.0 0.0 -0.0 7.41204 28.1193 -12.9043 -19.3704 27.1196 -68.9651 0.599365 16.5367 -0.0871006 2.45502 -0.0800068 0.303336 5.29615 -31.6043 -45.3319 0.0 0.0 0.0 -17.0916 14.7607 10.6617 -7.55106 0.236456 1.1339 36.807 13.0835 -4.61208 -25.0974 0.0 0.0 -0.0 0.0 -0.0 26.143 22.2728 -14.7077 -29.2678 -0.0714132 -4.44241 -0.278851 -12.9816 -0.0409638 36.0284 -0.0 -0.0 0.0 0.0 0.0 
2738.17458604 689.395 -1513.77967543 12.7650304361 70.6514231162 -12.7896820724 -0.10961 -0.0305847 1.71072 -0.107992 -0.139364 1.70531 -0.111504 -0.498008 1.63693 -0.115168 -0.233274 1.69502 -19.1902 15.8426 3.38286 -20.378 28.7597 9.95134 -0.0 0.0 -0.0 -1.18085 4.88091 -1.58932 2.07436 -8.44901 55.0319 1.93499 -43.7826 0.777581 -34.0383 -2.3406 3.60045 -6.04103 10.953 -36.6651 -0.0 0.0 -0.0 7.56391 28.0462 -13.2457 -18.9121 26.9164 -68.7445 0.518932 14.4167 -0.0656336 3.06998 -0.098005 0.379826 5.31619 -31.3305 -45.512 0.0 0.0 0.0 -19.5299 14.3443 12.5196 -7.9461 0.24469 1.19397 36.8781 12.7933 -4.61578 -25.558 0.0 0.0 -0.0 0.0 -0.0 26.278 13.6755 -12.9489 -28.9406 -0.0831828 -4.39357 1.71357 -14.9817 0.251394 37.2986 -0.0 -0.0 0.0 0.0 0.0 
2724.30601875 687.694 -1511.34953723 10.7463500638 69.8383970085 -10.8696454988 -0.205941 0.093208 1.75121 -0.204235 -0.0183973 1.75359 -0.203969 -0.392756 1.70915 -0.208026 -0.117941 1.74972 -19.2043 15.6982 3.31371 -20.3723 28.5182 9.82205 -0.0 0.0 -0.0 -0.910447 3.53279 -1.27664 1.86401 -7.62674 54.0137 2.0013 -44.747 0.823862 -34.1571 -2.35228 3.61023 -5.94655 11.072 -35.8061 -0.0 0.0 -0.0 7.82275 28.1246 -13.8055 -18.675 27.0994 -68.4908 0.550264 15.2477 -0.0736546 3.26177 -0.10345 0.40372 5.38415 -31.352 -46.0761 0.0 0.0 0.0 -21.2768 14.0692 13.6167 -4.78369 0.167188 0.714904 39.0966 12.5024 -4.81883 -26.6781 0.0 0.0 -0.0 0.0 -0.0 27.124 12.78 -13.0625 -28.0424 -0.114054 -4.25918 0.7112 -17.7704 0.105309 36.8151 -0.0 -0.0 0.0 0.0 0.0 
2714.36417657 689.228 -1516.7661214 5.28466681739 68.2163045063 -4.53681979475 -0.156381 0.403965 1.65052 -0.154914 0.298134 1.67287 -0.145227 -0.0644013 1.698 -0.149192 0.204536 1.68687 -17.2842 15.8896 1.02141 -18.413 29.9615 7.26373 -0.0 0.0 -0.0 -0.680763 2.5327 -0.980308 2.44131 -6.66359 52.8155 2.09798 -46.0978 0.892735 -35.5912 -2.49496 3.72638 -5.43374 10.8916 -31.9187 -0.0 0.0 -0.0 8.07873 28.4241 -14.3346 -18.1341 27.2845 -68.4227 0.537835 14.9188 -0.0704202 3.40429 -0.107444 0.421488 5.40053 -31.6267 -46.1956 0.0 0.0 0.0 -23.3342 13.5274 14.3 4.93432 -0.234413 -0.720517 37.0425 13.7239 -4.64182 -34.2282 0.0 0.0 -0.0 0.0 -0.0 26.5929 10.7425 -15.6108 -8.50664 -0.255661 -1.27928 -6.84722 -17.1536 -1.02733 33.2459 -0.0 -0.0 0.0 0.0 0.0 
2713.22451393 689.228 -1520.26754665 5.18684581633 67.7850266366 -4.43131769309 -0.156381 0.403965 1.65052 -0.154914 0.298134 1.67287 -0.145227 -0.0644013 1.698 -0.149192 0.204536 1.68687 -17.2842 15.8896 1.02141 -18.413 29.9615 7.26373 -0.0 0.0 -0.0 -0.680763 2.5327 -0.980308 2.44131 -6.66359 52.8155 2.09798 -46.0978 0.892735 -35.5912 -2.49496 3.72638 -5.43374 10.8916 -31.9187 -0.0 0.0 -0.0 8.07873 28.4241 -14.3346 -18.1341 27.2845 -68.4227 0.537835 14.9188 -0.0704202 3.40429 -0.107444 0.421488 5.40053 -31.6267 -46.1956 0.0 0.0 0.0 -23.3342 13.5274 14.3 4.93432 -0.234413 -0.720517 37.0425 13.7239 -4.64182 -34.2282 0.0 0.0 -0.0 0.0 -0.0 26.5929 10.7425 -15.6108 -8.50664 -0.255661 -1.27928 -6.84722 -17.1536 -1.02733 33.2459 -0.0 -0.0 0.0 0.0 0.0 
2689.05086621 684.308 -1520.61204276 3.04738796289 66.7701951855 -1.74884074277 -0.019769 0.550294 1.55762 -0.0185317 0.450077 1.58946 -0.00511183 0.105901 1.64855 -0.008719 0.364895 1.61115 -14.2809 15.3353 -0.777763 -15.0611 29.7487 4.46648 -0.0 0.0 -0.0 -0.344431 2.98426 -0.290057 2.69858 -5.83811 52.5776 2.21177 -47.6069 0.975764 -36.1017 -2.54644 3.76686 -5.374 11.8869 -30.7472 -0.0 0.0 -0.0 7.88374 27.6141 -13.9964 -19.3039 27.4514 -68.0307 0.602587 16.6207 -0.08802 3.59913 -0.112833 0.445793 5.54181 -31.8435 -47.3771 0.0 0.0 0.0 -24.501 13.2351 14.4586 6.79448 -0.338795 -0.986613 38.4395 12.8727 -4.7629 -37.0619 0.0 0.0 -0.0 0.0 -0.0 26.4873 9.82213 -16.3657 1.22071 0.0521888 0.180048 -6.35986 -9.48335 -0.943001 31.1158 -0.0 -0.0 0.0 0.0 0.0 
2687.63836136 684.308 -1525.32951145 2.98052288314 66.2178548559 -1.67592585333 -0.019769 0.550294 1.55762 -0.0185317 0.450077 1.58946 -0.00511183 0.105901 1.64855 -0.008719 0.364895 1.61115 -14.2809 15.3353 -0.777763 -15.0611 29.7487 4.46648 -0.0 0.0 -0.0 -0.344431 2.98426 -0.290057 2.69858 -5.83811 52.5776 2.21177 -47.6069 0.975764 -36.1017 -2.54644 3.76686 -5.374 11.8869 -30.7472 -0.0 0.0 -0.0 7.88374 27.6141 -13.9964 -19.3039 27.4514 -68.0307 0.602587 16.6207 -0.08802 3.59913 -0.112833 0.445793 5.54181 -31.8435 -47.3771 0.0 0.0 0.0 -24.501 13.2351 14.4586 6.79448 -0.338795 -0.986613 38.4395 12.8727 -4.7629 -37.0619 0.0 0.0 -0.0 0.0 -0.0 26.4873 9.82213 -16.3657 1.22071 0.0521888 0.180048 -6.35986 -9.48335 -0.943001 31.1158 -0.0 -0.0 0.0 0.0 0.0 
2685.86090798 684.308 -1531.51570332 2.89781907099 65.4958617238 -1.58529596877 -0.019769 0.550294 1.55762 -0.0185317 0.450077 1.58946 -0.00511183 0.105901 1.64855 -0.008719 0.364895 1.61115 -14.2809 15.3353 -0.777763 -15.0611 29.7487 4.46648 -0.0 0.0 -0.0 -0.344431 2.98426 -0.290057 2.69858 -5.83811 52.5776 2.21177 -47.6069 0.975764 -36.1017 -2.54644 3.76686 -5.374 11.8869 -30.7472 -0.0 0.0 -0.0 7.88374 27.6141 -13.9964 -19.3039 27.4514 -68.0307 0.602587 16.6207 -0.08802 3.59913 -0.112833 0.445793 5.54181 -31.8435 -47.3771 0.0 0.0 0.0 -24.501 13.2351 14.4586 6.79448 -0.338795 -0.986613 38.4395 12.8727 -4.7629 -37.0619 0.0 0.0 -0.0 0.0 -0.0 26.4873 9.82213 -16.3657 1.22071 0.0521888 0.180048 -6.35986 -9.48335 -0.943001 31.1158 -0.0 -0.0 0.0 0.0 0.0 
